<?xml version="1.0" encoding="UTF-8"?>
<svg width="111px" height="111px" viewBox="0 0 111 111" version="1.1" xmlns="http://www.w3.org/2000/svg" xmlns:xlink="http://www.w3.org/1999/xlink">
    <!-- Generator: Sketch 64 (93537) - https://sketch.com -->
    <title>Group 19</title>
    <desc>Created with Sketch.</desc>
    <defs>
        <polygon id="path-1" points="0.3132 0.72536983 51.995 0.72536983 51.995 69.8867 0.3132 69.8867"></polygon>
        <polygon id="path-3" points="0.203162222 0.0047 22.1689 0.0047 22.1689 22 0.203162222 22"></polygon>
    </defs>
    <g id="Page-1" stroke="none" stroke-width="1" fill="none" fill-rule="evenodd">
        <g id="Group-19">
            <path d="M17.6132,83.066 C16.1762,83.701 14.6752,84.003 13.1982,84.003 C9.4052,84.003 5.7772,82.012 3.7812,78.612 C10.1452,92.875 22.3912,104.009 37.3492,108.884 C38.4742,109.251 39.6152,109.425 40.7382,109.425 C45.3402,109.425 49.6212,106.493 51.1252,101.88 C52.9952,96.143 49.8592,89.975 44.1212,88.105 C34.0732,84.831 26.0402,76.902 22.6342,66.896 C22.4282,66.294 22.1742,65.723 21.8802,65.183 C22.2502,66.358 22.6832,67.516 23.1852,68.652 C25.6272,74.171 23.1322,80.624 17.6132,83.066" id="Fill-1" fill="#10A0E8"></path>
            <path d="M53.8701,0.0001 C50.4431,0.0001 47.0691,0.3161 43.7681,0.9181 C35.2131,2.4791 27.1731,6.0211 20.1281,11.4051 C14.8581,15.4341 10.3521,20.4051 6.8281,25.9881 C10.1531,22.1461 15.8271,21.0361 20.4301,23.6181 C25.6941,26.5701 27.5681,33.2301 24.6161,38.4941 C23.4931,40.4971 22.5881,42.5981 21.9041,44.7581 C24.8271,36.1401 31.1111,29.2301 39.0111,25.3341 C39.9381,24.8771 40.8851,24.4591 41.8531,24.0871 C46.0721,22.4371 50.5131,21.6951 54.9111,21.8041 C60.4571,21.2791 64.7971,16.6111 64.7971,10.9271 C64.7971,4.8921 59.9051,0.0001 53.8701,0.0001" id="Fill-3" fill="#10A0E8"></path>
            <path d="M94.7075,33.8077 C99.1995,29.7767 99.5715,22.8677 95.5405,18.3767 C93.3275,15.9107 90.9265,13.6787 88.3725,11.6767 C88.2305,11.5717 88.0925,11.4647 87.9495,11.3617 C83.0505,7.8377 76.2215,8.9537 72.6975,13.8527 C69.1735,18.7517 70.2895,25.5797 75.1885,29.1037 C77.4435,30.7257 79.4635,32.6047 81.2245,34.6827 C83.0745,35.9557 85.2395,36.6027 87.4125,36.6027 C90.0125,36.6027 92.6215,35.6807 94.7075,33.8077" id="Fill-5" fill="#FF4D84"></path>
            <path d="M20.4301,23.6177 C15.8261,21.0357 10.1531,22.1457 6.8281,25.9877 C4.5241,29.6387 2.6471,33.5537 1.2481,37.6367 C0.8401,38.8857 0.4731,40.1457 0.1561,41.4157 C-0.7699,46.8327 2.5071,52.1927 7.9111,53.7447 C8.9191,54.0347 9.9341,54.1727 10.9331,54.1727 C15.6821,54.1727 20.0541,51.0527 21.4301,46.2597 C21.5761,45.7527 21.7361,45.2537 21.9041,44.7577 C22.5881,42.5977 23.4931,40.4967 24.6161,38.4937 C27.5681,33.2297 25.6941,26.5697 20.4301,23.6177" id="Fill-7" fill="#FFFFFF"></path>
            <path d="M8.7675,60.0733 C3.0545,62.0183 0.0005,68.2263 1.9455,73.9393 C2.4865,75.5303 3.1015,77.0883 3.7815,78.6123 C5.7765,82.0113 9.4055,84.0023 13.1985,84.0023 C14.6745,84.0023 16.1755,83.7013 17.6135,83.0663 C23.1325,80.6243 25.6265,74.1713 23.1855,68.6523 C22.6835,67.5163 22.2495,66.3573 21.8795,65.1833 C19.3835,60.5963 13.8795,58.3333 8.7675,60.0733" id="Fill-9" fill="#0ED8D8"></path>
            <path d="M58.9638,102.606 C58.0988,99.969 58.2948,97.241 59.3138,94.878 C58.7208,96.214 58.3888,97.691 58.3888,99.247 C58.3888,102.833 60.1418,106.009 62.8358,107.969 C61.0818,106.669 59.6958,104.838 58.9638,102.606" id="Fill-11" fill="#0BAEFF"></path>
            <g id="Group-15" transform="translate(59.000000, 40.244000)">
                <mask id="mask-2" fill="white">
                    <use xlink:href="#path-1"></use>
                </mask>
                <g id="Clip-14"></g>
                <path d="M43.1342,43.5627 C43.4092,43.3947 43.6762,43.2137 43.9362,43.0207 C43.6762,43.2137 43.4092,43.3947 43.1342,43.5627 M44.1972,42.8237 C45.1092,42.1027 45.9172,41.2307 46.5732,40.2207 C45.9172,41.2307 45.1092,42.1027 44.1972,42.8237 M30.0812,42.3497 C30.0152,42.2907 29.9492,42.2317 29.8862,42.1707 C29.9492,42.2317 30.0152,42.2907 30.0812,42.3497 M29.1632,41.4127 C29.2172,41.4747 29.2732,41.5357 29.3282,41.5967 C29.2732,41.5357 29.2172,41.4747 29.1632,41.4127 M28.8322,41.0107 C28.8812,41.0727 28.9322,41.1337 28.9822,41.1947 C28.9322,41.1337 28.8812,41.0727 28.8322,41.0107 M28.5222,40.5957 C28.5662,40.6577 28.6122,40.7187 28.6572,40.7797 C28.6122,40.7187 28.5662,40.6577 28.5222,40.5957 M28.2332,40.1667 C28.2732,40.2287 28.3142,40.2897 28.3542,40.3507 C28.3142,40.2897 28.2722,40.2287 28.2332,40.1667 M27.9652,39.7277 C28.0002,39.7877 28.0362,39.8477 28.0722,39.9077 C28.0362,39.8477 28.0002,39.7877 27.9652,39.7277 M27.7182,39.2757 C27.7492,39.3357 27.7812,39.3947 27.8132,39.4537 C27.7812,39.3947 27.7492,39.3357 27.7182,39.2757 M27.4942,38.8147 C27.5202,38.8727 27.5482,38.9307 27.5762,38.9877 C27.5482,38.9307 27.5202,38.8727 27.4942,38.8147 M29.5142,41.7997 C29.5732,41.8607 29.6342,41.9207 29.6942,41.9807 C29.6342,41.9207 29.5732,41.8607 29.5142,41.7997 M26.5192,34.9777 C26.5172,34.9397 26.5152,34.9027 26.5132,34.8657 C26.5152,34.9027 26.5172,34.9397 26.5192,34.9777 M26.5672,35.4987 C26.5622,35.4577 26.5582,35.4167 26.5542,35.3757 C26.5582,35.4167 26.5622,35.4577 26.5672,35.4987 M26.6392,36.0147 C26.6322,35.9717 26.6252,35.9277 26.6192,35.8847 C26.6252,35.9277 26.6322,35.9717 26.6392,36.0147 M26.7362,36.5277 C26.7262,36.4807 26.7172,36.4347 26.7072,36.3877 C26.7172,36.4347 26.7262,36.4807 26.7362,36.5277 M26.8572,37.0337 C26.8432,36.9847 26.8312,36.9357 26.8192,36.8857 C26.8312,36.9357 26.8432,36.9847 26.8572,37.0337 M27.0012,37.5347 C26.9852,37.4827 26.9692,37.4317 26.9532,37.3797 C26.9692,37.4317 26.9852,37.4827 27.0012,37.5347 M27.1702,38.0277 C27.1502,37.9737 27.1302,37.9197 27.1112,37.8647 C27.1302,37.9197 27.1502,37.9737 27.1702,38.0277 M27.3622,38.5127 C27.3382,38.4567 27.3142,38.4007 27.2912,38.3437 C27.3142,38.4007 27.3382,38.4567 27.3622,38.5127 M26.4962,34.3517 C26.4962,34.3857 26.4962,34.4207 26.4972,34.4547 C26.4962,34.4207 26.4962,34.3857 26.4962,34.3517 M30.4882,42.6997 C30.4172,42.6427 30.3462,42.5857 30.2782,42.5267 C30.3462,42.5857 30.4172,42.6427 30.4882,42.6997 M30.9152,43.0327 C30.8392,42.9767 30.7622,42.9217 30.6882,42.8637 C30.7622,42.9217 30.8392,42.9767 30.9152,43.0327 M31.3642,43.3487 C31.2822,43.2937 31.1992,43.2397 31.1182,43.1837 C31.1992,43.2397 31.2822,43.2937 31.3642,43.3487 M31.8372,43.6457 C31.7462,43.5917 31.6552,43.5387 31.5672,43.4827 C31.6552,43.5387 31.7462,43.5917 31.8372,43.6457 M32.3422,43.9277 C32.2392,43.8737 32.1352,43.8197 32.0342,43.7627 C32.1352,43.8197 32.2392,43.8737 32.3422,43.9277 M32.9782,44.2367 C32.8222,44.1677 32.6692,44.0967 32.5192,44.0207 C32.6692,44.0967 32.8222,44.1677 32.9782,44.2367 M51.6732,10.4757 C51.0222,4.4757 45.6252,0.1407 39.6312,0.7897 C34.1422,1.3847 30.0482,5.9487 29.8882,11.3157 C30.1332,12.9487 30.2592,14.6077 30.2592,16.2807 C30.2592,21.0077 29.3042,25.5747 27.4212,29.8547 C27.3602,29.9937 27.3042,30.1327 27.2492,30.2727 C27.2492,30.2727 27.2492,30.2717 27.2492,30.2717 L27.2222,30.1997 C25.3172,34.4967 22.5172,38.4047 18.9382,41.6177 C15.4202,44.7757 11.3832,47.1157 6.9412,48.5737 C3.8432,49.5897 1.5102,51.8587 0.3132,54.6347 C1.9902,50.8557 5.7722,48.2197 10.1722,48.2197 C16.1272,48.2197 20.9552,53.0467 20.9552,59.0017 C20.9552,64.9577 16.1272,69.7857 10.1722,69.7857 C7.8032,69.7857 5.6142,69.0197 3.8352,67.7257 C5.6982,69.1067 7.9782,69.8867 10.3452,69.8867 C11.4732,69.8867 12.6212,69.7097 13.7522,69.3387 C21.0922,66.9317 27.7492,63.0767 33.5362,57.8817 C39.2942,52.7137 43.8282,46.4547 46.9622,39.5757 C51.0582,30.5857 52.7632,20.5377 51.6732,10.4757" id="Fill-13" fill="#10A0E8" mask="url(#mask-2)"></path>
            </g>
            <g id="Group-18" transform="translate(58.000000, 88.244000)">
                <mask id="mask-4" fill="white">
                    <use xlink:href="#path-3"></use>
                </mask>
                <g id="Clip-17"></g>
                <path d="M22.1689,11.0027 C22.1689,4.9287 17.2459,0.0047 11.1719,0.0047 C6.6839,0.0047 2.8269,2.6937 1.1169,6.5477 C0.0779,8.9567 -0.1221,11.7397 0.7609,14.4287 C1.5069,16.7057 2.9209,18.5737 4.7099,19.8987 C6.5239,21.2187 8.7559,22.0007 11.1719,22.0007 C17.2459,22.0007 22.1689,17.0767 22.1689,11.0027" id="Fill-16" fill="#FFFFFF" mask="url(#mask-4)"></path>
            </g>
        </g>
    </g>
</svg>