<svg xmlns="http://www.w3.org/2000/svg" viewBox="0 0 58.47 62.05"><defs><style>.cls-1{fill:#0ed8d8;}</style></defs><g id="Layer_2" data-name="Layer 2"><g id="Layer_2-2" data-name="Layer 2"><path class="cls-1" d="M41.8,62.05H9.46A9.47,9.47,0,0,1,0,52.59V14.8A9.47,9.47,0,0,1,9.46,5.34H41.8a9.48,9.48,0,0,1,9.46,9.46v7.08a1.29,1.29,0,0,1-2.57,0V14.8A6.91,6.91,0,0,0,41.8,7.9H9.46a6.91,6.91,0,0,0-6.9,6.9V52.59a6.91,6.91,0,0,0,6.9,6.9H41.8a6.91,6.91,0,0,0,6.89-6.9V42.72a1.29,1.29,0,0,1,2.57,0v9.87A9.47,9.47,0,0,1,41.8,62.05Z"/><rect class="cls-1" x="16.86" width="17.92" height="10.13"/><path class="cls-1" d="M40.4,53.06h0a1.28,1.28,0,0,1-1.23-1L34,25.41,30.73,36.29a1.28,1.28,0,0,1-1.23.92H10a1.29,1.29,0,0,1,0-2.57H28.55L33.09,19.7a1.33,1.33,0,0,1,1.29-.91,1.3,1.3,0,0,1,1.2,1l4.93,25.71L45,26a1.28,1.28,0,0,1,1.13-1,1.26,1.26,0,0,1,1.29.77l3.78,8.71h6a1.28,1.28,0,0,1,0,2.56H50.31a1.27,1.27,0,0,1-1.17-.77L46.59,30.4,41.65,52.06A1.27,1.27,0,0,1,40.4,53.06Z"/><path class="cls-1" d="M29.65,45.27H10a1.28,1.28,0,1,1,0-2.56H29.65a1.28,1.28,0,0,1,0,2.56Z"/><path class="cls-1" d="M29.65,54.05H10a1.28,1.28,0,1,1,0-2.56H29.65a1.28,1.28,0,0,1,0,2.56Z"/><path class="cls-1" d="M23.75,22.12h0A3.45,3.45,0,0,0,24,20.76a3.58,3.58,0,0,0-3.64-3.52,3.68,3.68,0,0,0-2.7,1.18A3.65,3.65,0,0,0,15,17.24a3.57,3.57,0,0,0-3.63,3.52,3.36,3.36,0,0,0,.35,1.48h0l.05.08a3.26,3.26,0,0,0,.5.73l5.41,7.85L23,23.22a3.53,3.53,0,0,0,.76-1.08Z"/></g></g></svg>