<svg xmlns="http://www.w3.org/2000/svg" viewBox="0 0 168.11 178.41"><defs><style>.cls-1{fill:#fff;}</style></defs><g id="Layer_2" data-name="Layer 2"><g id="Layer_2-2" data-name="Layer 2"><path class="cls-1" d="M120.17,178.41h-93A27.24,27.24,0,0,1,0,151.2V42.56A27.24,27.24,0,0,1,27.21,15.35h93a27.24,27.24,0,0,1,27.2,27.21V62.89a3.69,3.69,0,1,1-7.37,0V42.56a19.85,19.85,0,0,0-19.83-19.83h-93A19.85,19.85,0,0,0,7.37,42.56V151.2A19.85,19.85,0,0,0,27.21,171h93A19.85,19.85,0,0,0,140,151.2V122.82a3.69,3.69,0,1,1,7.37,0V151.2A27.24,27.24,0,0,1,120.17,178.41Z"/><rect class="cls-1" x="48.49" width="51.52" height="29.12"/><path class="cls-1" d="M116.17,152.55h-.07a3.68,3.68,0,0,1-3.55-3L97.86,73.05l-9.51,31.3A3.69,3.69,0,0,1,84.83,107H28.66a3.69,3.69,0,0,1,0-7.38H82.09l13-43A3.82,3.82,0,0,1,98.86,54a3.68,3.68,0,0,1,3.42,3l14.19,73.91,12.79-56.13a3.68,3.68,0,0,1,3.25-2.85,3.62,3.62,0,0,1,3.72,2.2l10.84,25h17.35a3.69,3.69,0,1,1,0,7.37H144.65a3.67,3.67,0,0,1-3.38-2.22l-7.33-16.93-14.18,62.27A3.69,3.69,0,0,1,116.17,152.55Z"/><path class="cls-1" d="M85.23,130.17H28.66a3.69,3.69,0,0,1,0-7.38H85.23a3.69,3.69,0,0,1,0,7.38Z"/><path class="cls-1" d="M85.23,155.4H28.66a3.69,3.69,0,0,1,0-7.38H85.23a3.69,3.69,0,0,1,0,7.38Z"/><path class="cls-1" d="M68.27,63.6h0a9.89,9.89,0,0,0,.81-3.92A10.29,10.29,0,0,0,58.61,49.56,10.59,10.59,0,0,0,50.84,53a10.55,10.55,0,0,0-7.76-3.39A10.29,10.29,0,0,0,32.62,59.68a9.89,9.89,0,0,0,1,4.27h0l.14.21a10.31,10.31,0,0,0,1.46,2.11L50.76,88.85,66.07,66.77a10.16,10.16,0,0,0,2.17-3.13Z"/></g></g></svg>